<svg xmlns="http://www.w3.org/2000/svg" width="800" height="600" viewBox="0 0 800 600" role="img" aria-labelledby="title desc">
  <title id="title">Success story placeholder</title>
  <desc id="desc">Decorative hearts and rings representing a wedding success story</desc>
  <defs>
    <linearGradient id="bg" x1="0%" y1="0%" x2="100%" y2="100%">
      <stop offset="0%" style="stop-color:#fff7ed"/>
      <stop offset="100%" style="stop-color:#fed7aa"/>
    </linearGradient>
    <linearGradient id="accent" x1="0%" y1="0%" x2="0%" y2="100%">
      <stop offset="0%" style="stop-color:#ffb84d"/>
      <stop offset="100%" style="stop-color:#d98809"/>
    </linearGradient>
  </defs>
  <rect width="800" height="600" fill="url(#bg)"/>
  <circle cx="400" cy="300" r="180" fill="#ffffff" opacity="0.85"/>
  <path d="M400 195c-35-45-95-35-95 28 0 42 38 78 95 125 57-47 95-83 95-125 0-63-60-73-95-28z" fill="url(#accent)" opacity="0.35"/>
  <path d="M400 220c-28-36-76-28-76 22 0 34 30 62 76 100 46-38 76-66 76-100 0-50-48-58-76-22z" fill="url(#accent)" opacity="0.55"/>
  <ellipse cx="400" cy="355" rx="120" ry="14" fill="#fdba74" opacity="0.4"/>
  <text x="400" y="480" text-anchor="middle" font-family="Georgia, serif" font-size="28" fill="#9a3412" opacity="0.85">Our story</text>
</svg>
